<svg width="372" height="171" viewBox="0 0 372 171" fill="none" xmlns="http://www.w3.org/2000/svg">
<g clip-path="url(#clip0_14_6028)">
<path d="M336.32 68.8684H325.076V108.469H336.32V68.8684Z" fill="#F2F2F2"/>
<path d="M343.745 101.019L316.399 67.9177L261.508 68.4283L228.21 101.428L228.883 101.868H228.643V170.509H343.671V101.868L343.745 101.019Z" fill="#F2F2F2"/>
<path d="M316.427 67.9883L282.265 108.741V170.509H343.671V100.988L316.427 67.9883Z" fill="#E6E6E6"/>
<path d="M319.454 136.35H306.914V147.629H319.454V136.35Z" fill="#3F3D56"/>
<path d="M319.454 116.829H306.914V127.928H319.454V116.829Z" fill="#3F3D56"/>
<path d="M319.454 136.35H306.914V147.629H319.454V136.35Z" fill="white"/>
<path d="M319.454 116.829H306.914V127.928H319.454V116.829Z" fill="white"/>
<path d="M263.723 133.358H251.182V144.636H263.723V133.358Z" fill="white"/>
<path d="M263.723 113.836H251.182V124.935H263.723V113.836Z" fill="white"/>
<path d="M247.594 68.8684H236.35V108.469H247.594V68.8684Z" fill="#F2F2F2"/>
<path d="M255.019 101.019L227.673 67.9177L172.782 68.4283L139.484 101.428L140.157 101.868H139.917V170.509H254.945V101.868L255.019 101.019Z" fill="#F2F2F2"/>
<path d="M227.701 67.9883L193.539 108.741V170.509H254.945V100.988L227.701 67.9883Z" fill="#E6E6E6"/>
<path d="M230.729 136.35H218.188V147.629H230.729V136.35Z" fill="#3F3D56"/>
<path d="M230.729 116.829H218.188V127.928H230.729V116.829Z" fill="#3F3D56"/>
<path d="M230.729 136.35H218.188V147.629H230.729V136.35Z" fill="white"/>
<path d="M230.729 116.829H218.188V127.928H230.729V116.829Z" fill="white"/>
<path d="M174.997 133.358H162.456V144.636H174.997V133.358Z" fill="white"/>
<path d="M174.997 113.836H162.456V124.935H174.997V113.836Z" fill="white"/>
<path d="M156.744 34.6926H141.72V87.608H156.744V34.6926Z" fill="#F2F2F2"/>
<path d="M166.666 77.6535L130.125 33.4226L56.7777 34.1046L12.2839 78.2008L13.1827 78.7888H12.8618V170.509H166.567V78.7888L166.666 77.6535Z" fill="#F2F2F2"/>
<path d="M130.163 33.5166L84.5139 87.972V170.509H166.567V77.6128L130.163 33.5166Z" fill="#E6E6E6"/>
<path d="M134.208 124.865H117.451V139.935H134.208V124.865Z" fill="#3F3D56"/>
<path d="M134.208 98.7791H117.451V113.611H134.208V98.7791Z" fill="#3F3D56"/>
<path d="M134.208 124.865H117.451V139.935H134.208V124.865Z" fill="white"/>
<path d="M134.208 98.7791H117.451V113.611H134.208V98.7791Z" fill="white"/>
<path d="M59.7374 120.866H42.98V135.936H59.7374V120.866Z" fill="white"/>
<path d="M59.7374 94.78H42.98V109.612H59.7374V94.78Z" fill="white"/>
<path d="M359.358 170.17H0V170.929H359.358V170.17Z" fill="#3F3D56"/>
<path d="M56.6177 156.221C62.609 156.221 67.4658 146.138 67.4658 133.699C67.4658 121.261 62.609 111.177 56.6177 111.177C50.6264 111.177 45.7695 121.261 45.7695 133.699C45.7695 146.138 50.6264 156.221 56.6177 156.221Z" fill="#3F3D56"/>
<path d="M57.6192 170.564C53.2744 144.04 57.5755 117.612 57.6194 117.348L58.4646 117.494C58.4208 117.756 54.1445 144.045 58.4648 170.421L57.6192 170.564Z" fill="#AABFD4"/>
<path d="M66.1683 128.856L56.3586 134.195L56.763 134.964L66.5727 129.625L66.1683 128.856Z" fill="#AABFD4"/>
<path d="M46.4099 131.531L46.0054 132.3L55.8138 137.642L56.2184 136.873L46.4099 131.531Z" fill="#AABFD4"/>
<path d="M30.5527 143.016C42.2709 143.016 51.7704 123.294 51.7704 98.9656C51.7704 74.6374 42.2709 54.9155 30.5527 54.9155C18.8344 54.9155 9.33496 74.6374 9.33496 98.9656C9.33496 123.294 18.8344 143.016 30.5527 143.016Z" fill="#AABFD4"/>
<path d="M32.9159 171C24.4293 119.191 32.8303 67.57 32.9161 67.0547L33.7612 67.2003C33.6756 67.7144 25.2994 119.196 33.7615 170.857L32.9159 171Z" fill="#3F3D56"/>
<path d="M49.4263 89.8609L30.2393 100.303L30.6436 101.072L49.8306 90.6301L49.4263 89.8609Z" fill="#3F3D56"/>
<path d="M10.3946 95.0918L9.98999 95.8608L29.1742 106.309L29.5787 105.539L10.3946 95.0918Z" fill="#3F3D56"/>
<path d="M80.8053 132.732C96.8407 132.732 109.84 105.744 109.84 72.453C109.84 39.1619 96.8407 12.1741 80.8053 12.1741C64.7698 12.1741 51.7705 39.1619 51.7705 72.453C51.7705 105.744 64.7698 132.732 80.8053 132.732Z" fill="#AABFD4"/>
<path d="M84.1949 171C72.586 100.129 84.0777 29.5171 84.1951 28.8123L85.0403 28.9579C84.923 29.6615 73.4561 100.135 85.0405 170.857L84.1949 171Z" fill="#3F3D56"/>
<path d="M106.707 60.1355L80.4509 74.425L80.8553 75.1943L107.111 60.9047L106.707 60.1355Z" fill="#3F3D56"/>
<path d="M53.1458 67.2939L52.7412 68.063L78.9934 82.3595L79.3979 81.5904L53.1458 67.2939Z" fill="#3F3D56"/>
<path d="M324.718 156.221C330.709 156.221 335.566 146.138 335.566 133.699C335.566 121.261 330.709 111.177 324.718 111.177C318.726 111.177 313.869 121.261 313.869 133.699C313.869 146.138 318.726 156.221 324.718 156.221Z" fill="#3F3D56"/>
<path d="M323.716 170.564C328.06 144.04 323.759 117.612 323.715 117.348L322.87 117.494C322.914 117.756 327.19 144.045 322.87 170.421L323.716 170.564Z" fill="#AABFD4"/>
<path d="M315.167 128.856L314.762 129.625L324.572 134.964L324.976 134.195L315.167 128.856Z" fill="#AABFD4"/>
<path d="M334.925 131.531L325.117 136.873L325.521 137.642L335.33 132.3L334.925 131.531Z" fill="#AABFD4"/>
<path d="M350.782 143.016C362.501 143.016 372 123.294 372 98.9656C372 74.6374 362.501 54.9155 350.782 54.9155C339.064 54.9155 329.565 74.6374 329.565 98.9656C329.565 123.294 339.064 143.016 350.782 143.016Z" fill="#AABFD4"/>
<path d="M348.419 171C356.906 119.191 348.505 67.57 348.419 67.0547L347.574 67.2003C347.659 67.7144 356.036 119.196 347.573 170.857L348.419 171Z" fill="#3F3D56"/>
<path d="M331.909 89.8609L331.504 90.6301L350.691 101.072L351.096 100.303L331.909 89.8609Z" fill="#3F3D56"/>
<path d="M370.941 95.0918L351.756 105.54L352.161 106.309L371.345 95.8609L370.941 95.0918Z" fill="#3F3D56"/>
<path d="M300.53 132.732C316.565 132.732 329.565 105.744 329.565 72.453C329.565 39.1619 316.565 12.1741 300.53 12.1741C284.494 12.1741 271.495 39.1619 271.495 72.453C271.495 105.744 284.494 132.732 300.53 132.732Z" fill="#AABFD4"/>
<path d="M297.14 171C308.749 100.129 297.257 29.5171 297.14 28.8123L296.295 28.9579C296.412 29.6615 307.879 100.135 296.294 170.857L297.14 171Z" fill="#3F3D56"/>
<path d="M274.628 60.1353L274.224 60.9045L300.48 75.194L300.884 74.4248L274.628 60.1353Z" fill="#3F3D56"/>
<path d="M328.189 67.2938L301.937 81.5903L302.342 82.3594L328.594 68.0629L328.189 67.2938Z" fill="#3F3D56"/>
<path d="M219.803 38.488L223.235 35.6951C220.569 35.3958 219.473 36.8753 219.025 38.0463C216.942 37.1663 214.675 38.3196 214.675 38.3196L221.541 40.8559C221.195 39.9145 220.592 39.0931 219.803 38.488Z" fill="#3F3D56"/>
<path d="M135.924 13.8322L139.355 11.0394C136.689 10.7401 135.594 12.2195 135.146 13.3905C133.063 12.5105 130.795 13.6638 130.795 13.6638L137.662 16.2002C137.316 15.2588 136.713 14.4373 135.924 13.8322Z" fill="#3F3D56"/>
<path d="M272.74 2.83196L276.172 0.0391123C273.506 -0.26017 272.411 1.21927 271.962 2.39027C269.879 1.51025 267.612 2.66355 267.612 2.66355L274.479 5.19995C274.132 4.25852 273.529 3.43708 272.74 2.83196Z" fill="#3F3D56"/>
<path d="M279.669 165.782C278.757 165.782 277.861 166.027 277.071 166.491C276.269 165.753 275.274 165.268 274.206 165.095C273.138 164.921 272.044 165.067 271.056 165.514C270.068 165.961 269.228 166.69 268.64 167.613C268.051 168.536 267.738 169.613 267.74 170.713H284.87C284.776 169.375 284.188 168.122 283.223 167.207C282.258 166.292 280.988 165.783 279.669 165.782Z" fill="#3F3D56"/>
<path d="M105.573 165.782C104.661 165.782 103.764 166.027 102.975 166.491C102.173 165.753 101.177 165.268 100.109 165.095C99.0416 164.921 97.9472 165.067 96.9592 165.514C95.9711 165.961 95.1318 166.69 94.5432 167.613C93.9546 168.536 93.642 169.613 93.6433 170.713H110.773C110.68 169.375 110.091 168.122 109.127 167.207C108.162 166.292 106.892 165.783 105.573 165.782Z" fill="#3F3D56"/>
<path d="M194.671 165.782C193.759 165.782 192.863 166.027 192.073 166.491C191.271 165.753 190.276 165.268 189.208 165.095C188.14 164.921 187.046 165.067 186.058 165.514C185.07 165.961 184.23 166.69 183.642 167.613C183.053 168.536 182.741 169.613 182.742 170.713H199.872C199.778 169.375 199.19 168.122 198.225 167.207C197.26 166.292 195.99 165.783 194.671 165.782Z" fill="#3F3D56"/>
<path d="M175.87 153.331H126.449V154.953H134.157V170.364H135.751V154.953H165.771V170.364H167.366V154.953H175.87V153.331Z" fill="#3F3D56"/>
<path d="M175.968 148.478H126.547V150.1H175.968V148.478Z" fill="#3F3D56"/>
<path d="M175.968 144.423H126.547V146.045H175.968V144.423Z" fill="#3F3D56"/>
<path d="M175.968 140.368H126.547V141.99H175.968V140.368Z" fill="#3F3D56"/>
<path d="M253.04 153.331H203.619V154.953H211.326V170.364H212.92V154.953H242.941V170.364H244.535V154.953H253.04V153.331Z" fill="#3F3D56"/>
<path d="M253.137 148.478H203.716V150.1H253.137V148.478Z" fill="#3F3D56"/>
<path d="M253.137 144.423H203.716V146.045H253.137V144.423Z" fill="#3F3D56"/>
<path d="M253.137 140.368H203.716V141.99H253.137V140.368Z" fill="#3F3D56"/>
</g>
<defs>
<clipPath id="clip0_14_6028">
<rect width="372" height="171" fill="white"/>
</clipPath>
</defs>
</svg>
