<svg width="30" height="30" viewBox="0 0 30 30" fill="none" xmlns="http://www.w3.org/2000/svg">
<path fill-rule="evenodd" clip-rule="evenodd" d="M29.4 15.3406C29.4 14.277 29.3045 13.2543 29.1273 12.2725H15V18.0747H23.0727C22.725 19.9497 21.6682 21.5384 20.0795 22.602V26.3656H24.9273C27.7636 23.7543 29.4 19.9088 29.4 15.3406Z" fill="#4285F4"/>
<path fill-rule="evenodd" clip-rule="evenodd" d="M15 29.9998C19.05 29.9998 22.4455 28.6567 24.9273 26.3658L20.0795 22.6021C18.7364 23.5021 17.0182 24.0339 15 24.0339C11.0932 24.0339 7.78637 21.3953 6.60682 17.8499H1.59546V21.7362C4.06364 26.6385 9.13637 29.9998 15 29.9998Z" fill="#34A853"/>
<path fill-rule="evenodd" clip-rule="evenodd" d="M6.60682 17.85C6.30682 16.95 6.13636 15.9887 6.13636 15C6.13636 14.0114 6.30682 13.05 6.60682 12.15V8.26367H1.59545C0.579545 10.2887 0 12.5796 0 15C0 17.4205 0.579545 19.7114 1.59545 21.7364L6.60682 17.85Z" fill="#FBBC05"/>
<path fill-rule="evenodd" clip-rule="evenodd" d="M15 5.96591C17.2023 5.96591 19.1795 6.72273 20.7341 8.20909L25.0364 3.90682C22.4386 1.48636 19.0432 0 15 0C9.13637 0 4.06364 3.36136 1.59546 8.26363L6.60682 12.15C7.78637 8.60454 11.0932 5.96591 15 5.96591Z" fill="#EA4335"/>
</svg>
